<svg xmlns="http://www.w3.org/2000/svg" xml:space="preserve" width="680" height="220" fill="#fff"><path d="M0 0h680v220H0V0Zm668.8 9.4v150.7" style="fill:none;fill-rule:nonzero"/><path d="M668.8 9.4v150.7" style="fill:none;fill-rule:nonzero;stroke:#d9d9d9;stroke-width:1px;stroke-dasharray:4,3"/><path d="M568.05 9.4v149.4" style="fill:none;fill-rule:nonzero"/><path d="M568.05 9.4v149.4" style="fill:none;fill-rule:nonzero;stroke:#d9d9d9;stroke-width:1px;stroke-dasharray:4,3"/><path d="M490.75 9.4v147.1" style="fill:none;fill-rule:nonzero"/><path d="M490.75 9.4v147.1" style="fill:none;fill-rule:nonzero;stroke:#d9d9d9;stroke-width:1px;stroke-dasharray:4,3"/><path d="M8.2 9.4h188.3v20.8H8.2z" style="fill:#3d85c6"/><path d="M196.5 30.2h100.8v20.85H196.5z" style="fill:#85200c"/><path d="M191.3 197.3h100.3v19.2H191.3z" style="fill:none;fill-rule:nonzero"/><path d="M204.1 210.65h-1.35v-3.35h-3.35v3.35H198V203h1.35v3.15h3.35V203h1.35v7.6l.05.05Zm6.85-6.5h-2.35v6.5h-1.3v-6.5h-2.35V203h6v1.15Zm2.7-1.1 2.2 5.8 2.2-5.8h1.7v7.6h-1.3v-2.5l.1-3.35-2.2 5.85h-1l-2.2-5.85.15 3.35v2.5h-1.35V203h1.7v.05Zm9 6.5h3.4v1.1h-4.75V203h1.3v6.5l.05.05Zm8.4-1.7v2.8h-1.3V203h2.9c.83 0 1.5.23 2 .7.5.43.75 1 .75 1.7 0 .77-.25 1.35-.75 1.75-.47.43-1.13.65-2 .65H231l.05.05Zm-.05-1.1h1.65c.47 0 .82-.1 1.05-.3.23-.23.35-.57.35-1 0-.4-.12-.72-.35-.95-.27-.23-.6-.35-1-.35H231v2.6Zm8.85 2.15h-2.95l-.6 1.75H235l2.85-7.6h1.2l2.85 7.6h-1.4l-.65-1.75Zm-2.55-1.1h2.2l-1.1-3.1-1.1 3.1Zm8.2-.1H244v2.95h-1.3V203h2.7c.87 0 1.53.2 2 .6.47.4.7.97.7 1.7 0 .5-.12.93-.35 1.3a2.1 2.1 0 0 1-1 .75l1.7 3.2H247l-1.5-2.9v.05Zm-1.5-1h1.4c.43 0 .77-.12 1-.35.27-.23.4-.55.4-.95 0-.4-.12-.72-.35-.95a1.5 1.5 0 0 0-1-.3H244v2.55Zm9.35 2c0-.33-.12-.58-.35-.75-.23-.2-.67-.38-1.3-.55-.6-.2-1.08-.42-1.45-.65-.67-.43-1-1-1-1.7 0-.6.23-1.1.7-1.5.5-.4 1.15-.6 1.95-.6.53 0 1 .1 1.4.3.43.2.77.48 1 .85.23.33.35.73.35 1.2h-1.3c0-.4-.13-.72-.4-.95-.23-.23-.58-.35-1.05-.35-.43 0-.77.1-1 .3-.23.17-.35.42-.35.75 0 .27.12.5.35.7.27.2.7.37 1.3.5.57.2 1.03.42 1.4.65.33.23.6.48.8.75.17.3.25.63.25 1 0 .67-.25 1.17-.75 1.5-.47.4-1.12.6-1.95.6-.53 0-1.03-.1-1.5-.3-.47-.2-.83-.48-1.1-.85a2.13 2.13 0 0 1-.35-1.25h1.3c0 .43.13.77.4 1a2 2 0 0 0 1.25.35c.47 0 .8-.08 1-.25a.9.9 0 0 0 .4-.75Zm3.85 1.95h-1.3V203h1.3v7.65Zm7.6 0h-1.3l-3.35-5.4v5.4h-1.35V203h1.35l3.35 5.5v-5.4h1.3v7.6-.05Zm7.4-1c-.27.37-.65.63-1.15.8-.5.2-1.05.3-1.65.3-.63 0-1.2-.15-1.7-.45a2.76 2.76 0 0 1-1.1-1.2 4.68 4.68 0 0 1-.45-1.9v-.6c0-1.13.28-2.02.85-2.65.53-.67 1.3-1 2.3-1 .83 0 1.5.22 2 .65.5.4.8 1 .9 1.8h-1.3c-.13-.93-.67-1.4-1.6-1.4-.57 0-1.02.22-1.35.65a3.6 3.6 0 0 0-.5 1.9v.55c0 .83.18 1.47.55 1.9.33.47.82.7 1.45.7.67 0 1.15-.17 1.45-.5v-1.45h-1.6v-1h2.9v2.9Z" style="fill:#444;fill-rule:nonzero"/><path d="M178.2 200.7H191v12.4h-12.85l.05-12.4Z" style="fill:#3d85c6"/><path d="M303.4 197.3h83.5v19.2h-83.5z" style="fill:none;fill-rule:nonzero"/><path d="M310.15 210.65V203h2.25c.67 0 1.27.17 1.8.5.5.27.9.68 1.2 1.25.27.53.4 1.15.4 1.85v.4c0 .7-.13 1.33-.4 1.9a3.44 3.44 0 0 1-3.05 1.7h-2.2v.05Zm1.35-6.5v5.45h.85c.67 0 1.2-.22 1.6-.65a3.2 3.2 0 0 0 .55-1.85v-.45c0-.8-.17-1.42-.5-1.85-.37-.43-.9-.65-1.6-.65h-.9Zm11.7 2.9c0 .73-.13 1.4-.4 2a3.1 3.1 0 0 1-1.1 1.25c-.47.3-1.02.45-1.65.45-.6 0-1.15-.15-1.65-.45-.47-.3-.83-.73-1.1-1.3a4.2 4.2 0 0 1-.4-1.9v-.45c0-.73.13-1.38.4-1.95.27-.57.63-1 1.1-1.3.47-.3 1.02-.45 1.65-.45.6 0 1.15.17 1.65.5.47.27.83.68 1.1 1.25.27.53.4 1.18.4 1.95v.4Zm-1.35-.4c0-.83-.17-1.48-.5-1.95-.3-.43-.73-.65-1.3-.65-.57 0-1.02.22-1.35.65-.33.47-.5 1.1-.5 1.9v.5c0 .8.17 1.43.5 1.9.33.43.78.65 1.35.65.6 0 1.05-.22 1.35-.65.33-.43.5-1.08.5-1.95v-.4h-.05Zm8.6 2.1 1.15-5.7h1.3l-1.75 7.6h-1.25l-1.45-5.5-1.5 5.5h-1.2L324 203h1.3l1.15 5.7 1.5-5.7H329l1.45 5.7v.05Zm9.45 1.9h-1.3l-3.4-5.4v5.4h-1.3V203h1.3l3.4 5.4V203h1.3v7.65Zm2.85-1.05h3.5v1h-4.8v-7.5h1.3v6.5Zm10.2-2.5c0 .7-.13 1.33-.4 1.9-.27.57-.63 1-1.1 1.3-.47.3-1.02.45-1.65.45-.6 0-1.15-.15-1.65-.45-.47-.3-.83-.73-1.1-1.3a4.2 4.2 0 0 1-.4-1.9v-.45c0-.73.13-1.38.4-1.95.27-.57.63-1 1.1-1.3.47-.3 1.02-.45 1.65-.45.6 0 1.15.17 1.65.5.47.27.83.68 1.1 1.25.27.53.4 1.18.4 1.95v.45Zm-1.35-.45c0-.83-.17-1.48-.5-1.95-.27-.43-.7-.65-1.3-.65-.57 0-1.02.22-1.35.65-.33.47-.5 1.1-.5 1.9v.5c0 .8.17 1.43.5 1.9.33.43.78.65 1.35.65.6 0 1.05-.22 1.35-.65.33-.43.5-1.08.5-1.95v-.4h-.05Zm6.8 2.25h-2.95l-.6 1.75h-1.4l2.9-7.6h1.15l2.9 7.6H359l-.6-1.75Zm-2.6-1.1h2.2l-1.1-3.1-1.1 3.1Zm5.45 2.85V203h2.25c.67 0 1.25.17 1.75.5.53.27.93.68 1.2 1.25.3.53.45 1.15.45 1.85v.4a4 4 0 0 1-.45 1.9 2.9 2.9 0 0 1-1.2 1.25 3.7 3.7 0 0 1-1.85.45h-2.15v.05Zm1.3-6.5v5.45h.85c.7 0 1.23-.22 1.6-.65.37-.43.55-1.05.55-1.85v-.45c0-.8-.17-1.42-.5-1.85-.33-.43-.85-.65-1.55-.65h-1 .05Z" style="fill:#444;fill-rule:nonzero"/><path d="M290.65 200.7h12.9v12.4h-12.9z" style="fill:#85200c"/><path d="M399.25 197.3h74.5v19.2h-74.5z" style="fill:none;fill-rule:nonzero"/><path d="M410.45 207.25h-3.15v2.35h3.65v1H406v-7.5h4.9v1h-3.6v2.1h3.15v1.05Zm4.2-1.45 1.6-2.75h1.5l-2.3 3.8 2.35 3.8h-1.5l-1.65-2.8-1.65 2.8h-1.5l2.3-3.8-2.3-3.8h1.55l1.6 2.75Zm8.55 1.5h-3.1v2.3h3.65v1h-5v-7.5h4.95v1h-3.6v2.1h3.1v1.1Zm7.4.9c-.1.8-.4 1.42-.9 1.85-.53.47-1.23.7-2.1.7a2.9 2.9 0 0 1-1.6-.45 2.57 2.57 0 0 1-1-1.2 4.57 4.57 0 0 1-.45-1.85v-.7c0-.7.13-1.33.4-1.9a3.1 3.1 0 0 1 1.1-1.25c.47-.3 1.02-.45 1.65-.45.83 0 1.5.23 2 .7s.8 1.1.9 1.9h-1.3c-.07-.53-.23-.92-.5-1.15a1.62 1.62 0 0 0-1.1-.35c-.57 0-1.02.2-1.35.6-.3.43-.47 1.05-.5 1.85v.65c0 .83.17 1.47.5 1.9.27.43.68.65 1.25.65.53 0 .93-.12 1.2-.35.27-.23.43-.62.5-1.15h1.3Zm6.7-5.15v5.1c0 .8-.25 1.43-.75 1.9a3 3 0 0 1-2.05.7c-.87 0-1.57-.23-2.1-.7a2.54 2.54 0 0 1-.75-1.95v-5h1.3v5c0 .53.13.93.4 1.2.27.27.65.4 1.15.4 1 0 1.5-.53 1.5-1.6v-5h1.3v-.05Zm6.9 1.1h-2.35v6.5h-1.35v-6.5h-2.35V203h6v1.1l.05.05Zm5.45 3.1h-3.15v2.35h3.65v1h-5v-7.5h5v1h-3.65v2.1h3.15v1.05Z" style="fill:#444;fill-rule:nonzero"/><path d="M385.9 200.7h12.85v12.4H385.9v-12.4ZM297.3 30.2h77.3v20.85h-77.3V30.2Z" style="fill:#5b9c5b"/><path d="M8.2 73.35h289.05v20.8H8.2v-20.8Zm366.4 0h194.8v20.8H374.6v-20.8Z" style="fill:#3d85c6"/><path d="m548 83.6.35-.75.6-.8c.47-.33.9-.5 1.3-.5.6 0 .9.25.9.75.07.73.23 1.57.5 2.5.1.47.28.7.55.7.2 0 .37-.12.5-.35l1.8-1.75c1-.93 1.68-1.63 2.05-2.1a19.52 19.52 0 0 1 3.6-3.3c.33-.23.65-.33.95-.3.27.07.38.27.35.6-.07.37-.07.73 0 1.1v.5a35.26 35.26 0 0 1-2.2 2.35 34.47 34.47 0 0 1-2.65 2.85l-4.45 4.3c-.47.43-.9.67-1.3.7a1.98 1.98 0 0 1-1.5-.6c-.6-.5-.93-1.08-1-1.75a8.4 8.4 0 0 0-.2-1.7c-.13-.67-.18-1.48-.15-2.45Z" style="fill:#fff;fill-rule:nonzero"/><path d="M196.5 9.4h178.1v20.8H196.5z" style="fill:#d9d9d9"/><path d="M268 20.7v2.85h-1.3v-7.6h2.9c.83 0 1.5.22 2 .65.5.47.75 1.05.75 1.75 0 .77-.23 1.35-.7 1.75-.5.4-1.18.6-2.05.6H268Zm0-1h1.6c.47 0 .82-.12 1.05-.35.27-.23.4-.57.4-1 0-.4-.13-.73-.4-1a1.7 1.7 0 0 0-1-.35H268v2.7Zm8.9 2.05h-3.05l-.6 1.8h-1.35l2.85-7.6h1.2l2.85 7.6h-1.3l-.6-1.8Zm-2.65-1h2.2l-1.1-3.2-1.1 3.15v.05Zm10.9-4.8V21c0 .83-.27 1.48-.8 1.95-.5.47-1.17.7-2 .7-.9 0-1.6-.23-2.1-.7a2.46 2.46 0 0 1-.8-1.95v-5h1.35v5c0 .53.12.93.35 1.2.27.27.65.4 1.15.4 1 0 1.5-.53 1.5-1.6v-5h1.35v-.05Zm5.35 5.65a1 1 0 0 0-.35-.8 4.3 4.3 0 0 0-1.25-.5 6.5 6.5 0 0 1-1.5-.65c-.67-.43-1-1-1-1.7 0-.6.25-1.1.75-1.5.5-.4 1.15-.6 1.95-.6a2.96 2.96 0 0 1 2.4 1.1c.2.37.3.77.3 1.2h-1.3c0-.4-.12-.7-.35-.9a1.62 1.62 0 0 0-1.1-.35c-.43 0-.77.1-1 .3-.23.17-.35.42-.35.75 0 .27.13.5.4.7.27.17.68.33 1.25.5.6.2 1.08.42 1.45.65.33.2.58.45.75.75.17.3.25.63.25 1 0 .67-.23 1.17-.7 1.5-.5.4-1.17.6-2 .6-.53 0-1.03-.1-1.5-.3-.47-.2-.82-.48-1.05-.85-.27-.33-.4-.75-.4-1.25h1.3c0 .43.15.77.45 1 .3.23.7.35 1.2.35.47 0 .82-.1 1.05-.3.23-.17.35-.4.35-.7Zm6.9-1.45h-3.1v2.35h3.65v1h-5V16h4.95v1h-3.6v2.1h3.1v1.05Zm1.6 3.4v-7.6h2.25c.67 0 1.27.15 1.8.45.5.3.9.72 1.2 1.25.27.57.4 1.2.4 1.9v.4c0 .7-.13 1.33-.4 1.9-.3.53-.72.95-1.25 1.25a3.6 3.6 0 0 1-1.8.45H299Zm1.3-6.55v5.5h.9c.67 0 1.2-.22 1.6-.65.33-.43.5-1.07.5-1.9v-.4c0-.83-.17-1.47-.5-1.9-.33-.43-.85-.65-1.55-.65h-.95Z" style="fill:#444;fill-rule:nonzero"/><path d="M196.5 94.15h100.8V115H196.5z" style="fill:#85200c"/><path d="M297.3 94.15h77.3V115h-77.3z" style="fill:#5b9c5b"/><path d="M297.3 73.35h77.3v20.8h-77.3z" style="fill:#d9d9d9"/><path d="M318.4 84.65v2.85H317v-7.6h2.9c.87 0 1.53.23 2 .7.53.43.8 1.02.8 1.75s-.23 1.28-.7 1.65c-.5.43-1.18.65-2.05.65h-1.55Zm0-1.05h1.55c.47 0 .83-.1 1.1-.3.23-.23.35-.57.35-1 0-.37-.12-.68-.35-.95A1.54 1.54 0 0 0 320 81h-1.6v2.6Zm8.8 2.15h-2.95l-.6 1.75h-1.4l2.9-7.6h1.15l2.9 7.6h-1.4l-.6-1.75Zm-2.6-1.1h2.25l-1.1-3.1-1.15 3.1Zm10.9-4.75V85c0 .8-.25 1.43-.75 1.9-.53.47-1.23.7-2.1.7-.87 0-1.55-.23-2.05-.7-.5-.47-.75-1.1-.75-1.9v-5.1h1.3V85c0 .5.13.88.4 1.15.23.27.6.4 1.1.4 1 0 1.5-.53 1.5-1.6v-5h1.35v-.05Zm5.35 5.65c0-.33-.12-.58-.35-.75-.23-.2-.65-.38-1.25-.55-.6-.2-1.1-.42-1.5-.65-.67-.43-1-1-1-1.7 0-.6.25-1.1.75-1.5.5-.4 1.15-.6 1.95-.6.53 0 1 .1 1.4.3.4.2.73.48 1 .85.23.33.35.73.35 1.2h-1.35c0-.4-.12-.72-.35-.95-.23-.23-.58-.35-1.05-.35-.43 0-.77.1-1 .3-.23.17-.35.42-.35.75 0 .3.12.53.35.7.27.2.7.38 1.3.55.57.17 1.03.37 1.4.6.33.23.6.48.8.75.17.3.25.63.25 1 0 .67-.25 1.17-.75 1.5-.47.4-1.13.6-2 .6-.53 0-1.03-.1-1.5-.3-.43-.2-.77-.48-1-.85a1.8 1.8 0 0 1-.45-1.25h1.35c0 .43.13.77.4 1a2 2 0 0 0 1.25.35c.47 0 .8-.08 1-.25.23-.2.35-.45.35-.75Zm6.95-1.45h-3.15v2.35h3.65v1.05h-4.95v-7.6h4.9V81h-3.6v2.05h3.15v1.05Zm1.6 3.4v-7.6h2.2c.67 0 1.27.17 1.8.5.5.27.9.68 1.2 1.25.3.53.45 1.15.45 1.85v.4c0 .73-.17 1.37-.5 1.9a2.9 2.9 0 0 1-1.2 1.25c-.5.3-1.1.45-1.8.45h-2.15Zm1.3-6.5v5.45h.85c.67 0 1.2-.22 1.6-.65.37-.43.55-1.05.55-1.85v-.45c0-.8-.17-1.42-.5-1.85-.37-.43-.9-.65-1.6-.65h-.9Z" style="fill:#444;fill-rule:nonzero"/><path d="M374.6 9.4h295.5v20.8H374.6z" style="fill:#3d85c6"/><path d="m648.75 19.65.35-.75.6-.8c.47-.37.9-.55 1.3-.55.6 0 .9.27.9.8.07.73.22 1.57.45 2.5.13.47.33.7.6.7.2 0 .37-.12.5-.35l1.8-1.75c1-.97 1.67-1.67 2-2.1.47-.53 1.08-1.17 1.85-1.9.77-.67 1.37-1.15 1.8-1.45.33-.2.63-.28.9-.25.3.03.42.23.35.6v1.15c.07.27.07.43 0 .5a29.48 29.48 0 0 1-2.15 2.35 34.47 34.47 0 0 1-2.65 2.85l-4.5 4.3c-.43.4-.85.63-1.25.7a2.14 2.14 0 0 1-1.55-.6c-.6-.5-.92-1.1-.95-1.8a8.4 8.4 0 0 0-.2-1.7 10 10 0 0 1-.15-2.4v-.05Z" style="fill:#fff;fill-rule:nonzero"/><path d="M8.2 137.9h483.9v20.8H8.2z" style="fill:#3d85c6"/><path d="m470.7 148.15.35-.75.65-.8c.43-.37.85-.55 1.25-.55.6 0 .9.27.9.8.07.73.23 1.57.5 2.5.1.47.28.7.55.7.2 0 .37-.12.5-.35.6-.53 1.2-1.12 1.8-1.75 1-.97 1.68-1.67 2.05-2.1.47-.57 1.08-1.2 1.85-1.9l1.75-1.45c.33-.2.65-.28.95-.25.27.03.38.23.35.6-.07.33-.07.7 0 1.1v.5a35.26 35.26 0 0 1-2.2 2.35 26.54 26.54 0 0 1-2.65 2.8l-4.45 4.35c-.43.4-.87.63-1.3.7-.53.03-1.03-.18-1.5-.65a2.45 2.45 0 0 1-1-1.75 8.4 8.4 0 0 0-.2-1.7c-.13-.63-.18-1.43-.15-2.4Z" style="fill:#fff;fill-rule:nonzero"/><path d="M196.5 158.7h100.8v20.8H196.5z" style="fill:#85200c"/><path d="M492.1 158.7h77.3v20.8h-77.3z" style="fill:#5b9c5b"/><path d="M8.2 94.15h50.7V115H8.2z" style="fill:#9c7b5b"/><path d="M20.5 109c-.1-.13-.18-.35-.25-.65-.5.53-1.13.8-1.9.8s-1.38-.2-1.85-.6a2.1 2.1 0 0 1-.7-1.6c0-.8.3-1.4.9-1.8.57-.43 1.4-.65 2.5-.65h1v-.5c0-.37-.1-.67-.3-.9-.23-.23-.57-.35-1-.35-.37 0-.67.1-.9.3a.81.81 0 0 0-.35.7h-1.7c0-.4.13-.77.4-1.1.27-.37.63-.65 1.1-.85.47-.2.98-.3 1.55-.3.87 0 1.57.22 2.1.65.5.43.77 1.05.8 1.85v3.3c0 .67.08 1.2.25 1.6v.1H20.5Zm-1.85-1.15c.33 0 .63-.08.9-.25.3-.17.52-.38.65-.65v-1.45h-.9c-.6 0-1.07.12-1.4.35-.3.2-.45.5-.45.9 0 .33.12.58.35.75.2.2.48.3.85.3v.05Zm9.1-.85c0-.3-.12-.52-.35-.65-.23-.17-.63-.3-1.2-.4a6.65 6.65 0 0 1-1.45-.5c-.83-.37-1.25-.93-1.25-1.7 0-.67.28-1.2.85-1.6.53-.43 1.2-.65 2-.65.9 0 1.62.22 2.15.65.57.43.85 1 .85 1.7H27.7c0-.33-.13-.6-.4-.8-.23-.2-.53-.3-.9-.3s-.67.08-.9.25a.77.77 0 0 0-.35.65c0 .27.1.47.3.6.23.13.67.28 1.3.45.67.13 1.17.3 1.5.5.4.2.68.43.85.7.2.3.3.63.3 1a2 2 0 0 1-.85 1.65c-.53.4-1.25.6-2.15.6-.6 0-1.13-.1-1.6-.3a2.9 2.9 0 0 1-1.15-.9c-.23-.4-.35-.82-.35-1.25h1.6c0 .4.15.7.45.9.27.2.62.3 1.05.3.47 0 .8-.08 1-.25a.77.77 0 0 0 .35-.65Zm5.7-.35 1.5-5h1.75l-2.95 8.5c-.43 1.23-1.18 1.85-2.25 1.85l-.8-.1v-1.3h.35c.4 0 .72-.07.95-.2.2-.17.37-.42.5-.75l.2-.65-2.55-7.35h1.75l1.6 5h-.05Zm5.75-5v.85c.57-.67 1.3-1 2.2-1 1.53 0 2.32.88 2.35 2.65V109H42.1v-4.75c0-.5-.1-.85-.3-1.05-.2-.23-.53-.35-1-.35-.67 0-1.17.3-1.5.9V109h-1.65v-7.35h1.55Zm9.3 6.2c.4 0 .73-.12 1-.35.3-.27.45-.57.45-.9h1.55c0 .43-.13.85-.4 1.25s-.63.73-1.1 1c-.47.2-.97.3-1.5.3a3.29 3.29 0 0 1-2.5-1 4.11 4.11 0 0 1-.85-2.75v-.2c0-1.13.3-2.03.9-2.7.6-.67 1.42-1 2.45-1 .87 0 1.58.25 2.15.75.53.53.82 1.2.85 2H50c0-.4-.15-.73-.45-1-.27-.3-.6-.45-1-.45-.53 0-.95.2-1.25.6-.3.4-.47 1-.5 1.8v.25c0 .8.17 1.4.5 1.8.27.4.68.6 1.25.6h-.05Z" style="fill:#fff;fill-rule:nonzero"/><path d="M8.2 158.7h46.75v20.8H8.2z" style="fill:#9c7b5b"/><path d="M15.8 169.8c0-1.13.25-2.05.75-2.75a2.6 2.6 0 0 1 2.15-1c.77 0 1.4.27 1.9.8V163h1.65v10.5h-1.5l-.05-.75c-.5.6-1.17.9-2 .9-.87 0-1.57-.35-2.1-1.05a4.6 4.6 0 0 1-.8-2.85v.05Zm1.65.15c0 .73.13 1.32.4 1.75.33.43.75.65 1.25.65.67 0 1.17-.3 1.5-.9v-3.2a1.63 1.63 0 0 0-1.5-.85c-.53 0-.93.2-1.2.6-.33.43-.5 1.08-.5 1.95h.05Zm9.8 3.75a3.35 3.35 0 0 1-2.55-1c-.67-.67-1-1.55-1-2.65v-.2c0-.73.15-1.4.45-2 .27-.57.67-1.02 1.2-1.35a3 3 0 0 1 1.7-.5c1 0 1.78.33 2.35 1 .53.63.8 1.53.8 2.7v.7h-4.8c.03.6.23 1.08.6 1.45.33.33.78.5 1.35.5.77 0 1.38-.3 1.85-.9l.9.85c-.3.43-.7.77-1.2 1-.5.27-1.05.4-1.65.4Zm-.2-6.35c-.47 0-.83.17-1.1.5-.3.33-.47.77-.5 1.3h3.15v-.1a2.06 2.06 0 0 0-.5-1.25 1.2 1.2 0 0 0-1-.45h-.05Zm5 6.2v-6.15H31v-1.25h1.15v-.65c0-.83.22-1.47.65-1.9.47-.47 1.12-.7 1.95-.7.27 0 .57.05.9.15v1.3l-.65-.05c-.8 0-1.2.4-1.2 1.2v.65h1.5v1.25h-1.5v6.1h-1.65l-.1.05Zm7.5.15a3.45 3.45 0 0 1-2.55-1c-.67-.67-1-1.55-1-2.65v-.2c0-.73.15-1.4.45-2 .27-.57.67-1.02 1.2-1.35a3 3 0 0 1 1.7-.5c1 0 1.78.33 2.35 1 .57.63.85 1.53.85 2.7v.7H37.7c.03.6.23 1.08.6 1.45.33.33.78.5 1.35.5.77 0 1.38-.3 1.85-.9l.9.85c-.3.43-.68.77-1.15 1-.5.27-1.07.4-1.7.4Zm-.2-6.35c-.43 0-.8.17-1.1.5-.27.33-.43.77-.5 1.3h3.15v-.1c-.03-.57-.2-.98-.5-1.25a1.2 1.2 0 0 0-1-.45h-.05Zm8.35.3H47c-.77 0-1.27.28-1.5.85v5h-1.7v-7.4h1.6v.85c.43-.67 1-1 1.7-1 .23 0 .43.03.6.1v1.6Z" style="fill:#fff;fill-rule:nonzero"/><path d="M108.2 30.2h65.05v20.85h-65l-.05-20.85Z" style="fill:#9c7b5b"/><path d="m117.85 40.75 4 1.5V44l-5.7-2.55V40l5.75-2.5v1.65l-4 1.5-.05.1Zm10 2.3c0-.3-.12-.53-.35-.7a6.13 6.13 0 0 0-1.25-.4 4.6 4.6 0 0 1-1.4-.45c-.83-.4-1.25-.98-1.25-1.75 0-.63.27-1.17.8-1.6.57-.4 1.25-.6 2.05-.6.9 0 1.62.22 2.15.65.57.43.85 1 .85 1.7h-1.7a1 1 0 0 0-.35-.8 1.28 1.28 0 0 0-.95-.35c-.33 0-.62.1-.85.3a.77.77 0 0 0-.35.65c0 .27.1.47.3.6.23.13.67.27 1.3.4.67.17 1.17.33 1.5.5.4.23.68.48.85.75.2.27.3.6.3 1a2 2 0 0 1-.85 1.65c-.53.4-1.25.6-2.15.6-.6 0-1.15-.12-1.65-.35-.47-.2-.83-.5-1.1-.9a2 2 0 0 1-.4-1.2H125c0 .37.13.67.4.9.3.2.67.3 1.1.3.43 0 .77-.08 1-.25a.77.77 0 0 0 .35-.65Zm6.1.8c.43 0 .78-.12 1.05-.35.27-.23.42-.53.45-.9H137c0 .47-.15.9-.45 1.3-.27.4-.62.72-1.05.95-.47.23-.97.35-1.5.35a3.29 3.29 0 0 1-2.5-1c-.6-.67-.9-1.6-.9-2.8v-.15c0-1.13.3-2.03.9-2.7.6-.67 1.43-1 2.5-1 .87 0 1.58.25 2.15.75.53.5.82 1.17.85 2h-1.55c0-.43-.15-.77-.45-1-.27-.3-.6-.45-1-.45-.57 0-.98.2-1.25.6-.33.4-.5.98-.5 1.75v.3c0 .8.17 1.4.5 1.8.27.37.67.55 1.2.55Zm8.2-4.7h-.7c-.77 0-1.27.28-1.5.85v5h-1.7v-7.35h1.6v.85c.43-.67 1-1 1.7-1 .23 0 .43.03.6.1v1.55Zm2.8 5.9h-1.65v-7.4h1.65v7.4Zm-1.75-9.3c0-.27.07-.48.2-.65.17-.17.4-.25.7-.25.33 0 .57.08.7.25.17.17.25.38.25.65 0 .23-.08.43-.25.6a.95.95 0 0 1-.7.25.95.95 0 0 1-.7-.25.93.93 0 0 1-.2-.6Zm10 5.7a4.4 4.4 0 0 1-.75 2.7c-.5.7-1.2 1.05-2.1 1.05-.8 0-1.45-.27-1.95-.8v3.5h-1.65V37.65h1.5l.1.75c.5-.57 1.17-.85 2-.85.9 0 1.6.33 2.1 1 .53.67.8 1.6.8 2.8v.1h-.05Zm-1.65-.15c0-.73-.13-1.32-.4-1.75a1.57 1.57 0 0 0-1.3-.65c-.67 0-1.15.27-1.45.8V43c.33.57.83.85 1.5.85.53 0 .95-.2 1.25-.6.27-.43.4-1.1.4-2v.05Zm5.15-5.5v1.85h1.35v1.25h-1.35V43c0 .3.07.52.2.65.1.1.3.15.6.15h.55V45c-.37.1-.73.15-1.1.15-1.27 0-1.9-.7-1.9-2.1v-4.2h-1.2V37.6h1.2v-1.8h1.65Zm6.85 4.9-4.25-1.5v-1.7l5.9 2.5v1.35l-5.9 2.5v-1.6l4.25-1.6v.05Z" style="fill:#fff;fill-rule:nonzero"/><path d="M1.6 30.2h117.6v20.85H1.6z" style="fill:none;fill-rule:nonzero"/><path d="M15.35 42.35a3.08 3.08 0 0 1-1.05 2.25c-.63.53-1.47.8-2.5.8-.67 0-1.28-.17-1.85-.5a3.2 3.2 0 0 1-1.3-1.5 5.84 5.84 0 0 1-.45-2.15v-.85c0-.83.17-1.57.5-2.2.27-.67.68-1.17 1.25-1.5.57-.33 1.23-.5 2-.5.97 0 1.75.25 2.35.75.6.53.95 1.3 1.05 2.3h-1.5c-.1-.67-.3-1.13-.6-1.4-.33-.3-.78-.45-1.35-.45-.67 0-1.18.25-1.55.75-.37.5-.55 1.23-.55 2.2v.8c0 1 .17 1.73.5 2.2.33.53.83.8 1.5.8.63 0 1.1-.15 1.4-.45.33-.27.53-.72.6-1.35h1.55ZM24 41c0 .9-.17 1.68-.5 2.35a2.94 2.94 0 0 1-1.25 1.5 3.95 3.95 0 0 1-3.95.05 3.5 3.5 0 0 1-1.3-1.55 5.08 5.08 0 0 1-.5-2.3v-.5c0-.87.17-1.63.5-2.3a4 4 0 0 1 1.3-1.55c.57-.33 1.23-.5 2-.5.7 0 1.33.17 1.9.5.57.33 1 .83 1.3 1.5.33.67.5 1.43.5 2.3v.5Zm-1.55-.5c0-1-.2-1.75-.6-2.25-.37-.53-.9-.8-1.6-.8-.67 0-1.18.27-1.55.8-.47.5-.7 1.25-.7 2.25v.5c0 1 .18 1.77.55 2.3.4.53.93.8 1.6.8.7 0 1.23-.27 1.6-.8.4-.5.6-1.27.6-2.3v-.5h.1Zm10.25 4.8h-1.55l-4-6.4v6.4H25.5v-9h1.55l4 6.4v-6.4h1.6v9h.05Zm5-2 2.3-7h1.7l-3.2 9H37l-3.25-9h1.7l2.25 7Zm10.3-2h-3.7V44h4.35v1.25H42.7v-9h5.8v1.25h-4.3V40h3.7v1.2l.1.1Zm9.05 4H55.5l-4-6.4v6.4h-1.6v-9h1.55l4 6.4v-6.4h1.6v9Zm8.15-7.8h-2.8v7.75h-1.5V37.5H58v-1.25h7.1v1.25h.1Zm2.85 7.75H66.5v-9H68v9h.05Zm9.1-4.3c0 .9-.17 1.68-.5 2.35a2.94 2.94 0 0 1-1.25 1.5 3.6 3.6 0 0 1-2 .55c-.7 0-1.33-.17-1.9-.5a3.84 3.84 0 0 1-1.35-1.55 5.08 5.08 0 0 1-.5-2.3v-.5c0-.87.17-1.63.5-2.3a4 4 0 0 1 1.3-1.55c.57-.33 1.23-.5 2-.5a3.49 3.49 0 0 1 3.25 2c.3.67.47 1.43.5 2.3v.5h-.05Zm-1.55-.5c0-1-.2-1.75-.6-2.25-.33-.53-.87-.8-1.6-.8-.67 0-1.18.27-1.55.8-.4.53-.6 1.28-.6 2.25v.5c0 1 .2 1.77.6 2.3.37.53.9.8 1.6.8.67 0 1.2-.27 1.6-.8.33-.5.5-1.27.5-2.3v-.5h.05Zm10.25 4.8H84.3l-4-6.4v6.4h-1.6v-9h1.6l4 6.4V36.3h1.55v9-.05Zm7-2.1h-3.5l-.7 2.1H87l3.4-9h1.4l3.4 9h-1.6l-.75-2.1Zm-3.05-1.3h2.6l-1.3-3.7-1.3 3.7Zm8 2.15h4.1v1.25h-5.65v-9h1.55V44Z" style="fill:#444;fill-rule:nonzero"/></svg>